<svg xmlns="http://www.w3.org/2000/svg" version="1.1" xmlns:xlink="http://www.w3.org/1999/xlink" xmlns:svgjs="http://svgjs.com/svgjs" width="512" height="512" x="0" y="0" viewBox="0 0 512 512" style="enable-background:new 0 0 512 512" xml:space="preserve" class=""><g><g xmlns="http://www.w3.org/2000/svg"><path d="m62 423.039c-38.639-44.834-62-103.208-62-167.039 0-141.385 114.615-256 256-256s256 114.615 256 256c0 63.831-23.361 122.205-62 167.039-3.407 3.954-122.074-65.882-194-65.882s-190.593 69.836-194 65.882z" fill="#254167" data-original="#254167" class=""></path><path d="m268.941 457.279c-122.888 0-222.508-99.62-222.508-222.508s99.62-222.508 222.508-222.508 222.508 99.62 222.508 222.508-99.62 222.508-222.508 222.508z" fill="#2e5180" data-original="#2e5180"></path><path d="m88.302 385.11c.439 8.772-12.123 10.736-14.382 2.248l-73.581-276.414c-1.421-5.337 1.754-10.815 7.091-12.236l65.666-17.48z" fill="#a7d0fc" data-original="#a7d0fc"></path><path d="m436.56 81.228 65.666 17.48c5.337 1.421 8.512 6.899 7.091 12.236l-73.581 276.415c-2.259 8.488-14.821 6.524-14.382-2.248z" fill="#c8e2fd" data-original="#c8e2fd" class=""></path><path d="m450 40v383.039c-46.946 54.474-116.446 88.961-194 88.961s-147.054-34.487-194-88.961v-383.039c0-5.523 4.477-10 10-10h368c5.523 0 10 4.477 10 10z" fill="#e9f3fe" data-original="#e9f3fe" class=""></path><path d="m270.868 511.575c-4.92.282-9.877.425-14.868.425-77.554 0-147.054-34.487-194-88.961v-383.039c0-5.523 4.477-10 10-10h29.736c-5.523 0-10 4.477-10 10v383.039c43.925 50.969 107.595 84.439 179.132 88.536z" fill="#c8e2fd" data-original="#c8e2fd" class=""></path><path d="m336.248 286.214c-44.32 44.32-116.177 44.32-160.497 0s-44.32-116.177 0-160.497 116.177-44.32 160.497 0c44.321 44.32 44.321 116.177 0 160.497z" fill="#86befb" data-original="#86befb" class=""></path><path d="m282.635 316.3c-37.136 8.927-77.899-1.101-106.884-30.086-44.32-44.32-44.32-116.177 0-160.497 28.986-28.986 69.749-39.014 106.884-30.087-19.647 4.723-38.279 14.752-53.613 30.086-44.32 44.32-44.32 116.177 0 160.497 15.335 15.336 33.966 25.364 53.613 30.087z" fill="#76b6fa" data-original="#76b6fa" class=""></path><path d="m351 474.5c0 4.142-3.358 7.5-7.5 7.5h-175c-4.142 0-7.5-3.358-7.5-7.5s3.358-7.5 7.5-7.5h175c4.142 0 7.5 3.358 7.5 7.5zm-95 37.5c30.376 0 59.516-5.291 86.549-15h-173.098c27.033 9.709 56.173 15 86.549 15zm-87.5-59h175c4.142 0 7.5-3.358 7.5-7.5s-3.358-7.5-7.5-7.5h-175c-4.142 0-7.5 3.358-7.5 7.5s3.358 7.5 7.5 7.5z" fill="#a7d0fc" data-original="#a7d0fc"></path><path d="m351 378c0 4.142-3.358 7.5-7.5 7.5h-175c-4.142 0-7.5-3.358-7.5-7.5s3.358-7.5 7.5-7.5h175c4.142 0 7.5 3.358 7.5 7.5zm-66.5 21h-57c-4.142 0-7.5 3.358-7.5 7.5s3.358 7.5 7.5 7.5h57c4.142 0 7.5-3.358 7.5-7.5s-3.358-7.5-7.5-7.5z" fill="#5381c1" data-original="#5381c1" class=""></path><path d="m306 299c-24.888 31.665-93.223 21.308-130.382-12.786-22.447-20.595-29.388-46.062-31.618-57.214-10.911-54.558 23.112-105.554 31.618-103.284 10.38 2.771-21.909 83.616 11.382 110.284 32.311 25.883 94.886-24.512 121 2 14.18 14.396 10.87 44.626-2 61zm30.249-173.284c-28.131-28.131-67.355-38.406-103.59-30.827-6.079 13.536-8.083 28.255-2.467 39.429 9.177 18.262 32.328 14.362 42.383 36.766 7.024 15.651-.367 26.259 9.117 35.369 8.105 7.785 23.015 9.175 33.266 3.95 11.608-5.917 9.837-16.541 21.957-33.702 8.179-11.581 15.3-15.685 21.54-19.621-5.412-11.341-12.814-21.971-22.206-31.364z" fill="#88b56c" data-original="#88b56c" class=""></path><path d="m227.589 126.656c-1.961-9.794.3-21.144 5.07-31.766 16.397-3.43 33.407-3.203 49.723.68-19.74 4.698-38.465 14.747-53.865 30.147-.312.311-.621.624-.928.939zm-26.249 115.984c-5.211-1.104-10.043-3.197-14.34-6.64-33.291-26.668-1.002-107.513-11.382-110.284-8.506-2.27-42.529 48.726-31.618 103.284 2.23 11.152 9.171 36.619 31.618 57.214 27.484 25.216 72.02 37.448 103.42 29.297-18.506-5.004-35.993-14.769-50.521-29.297-12.696-12.697-21.755-27.653-27.177-43.574z" fill="#6e9e50" data-original="#6e9e50" class=""></path><path d="m256 84.643c-66.713 0-120.988 54.275-120.988 120.989s54.275 120.988 120.988 120.988 120.988-54.275 120.988-120.989-54.275-120.988-120.988-120.988zm94.6 168.759c-13.569 5.063-32.874 8.812-55.036 10.855 2.614-13.756 4.247-28.827 4.877-44.175 24.122-2.28 45.52-6.312 61.513-11.725-.41 16.166-4.458 31.444-11.354 45.045zm-94.6 58.218c-4.609 0-12.404-7.354-19.204-28.078-.319-.973-.631-1.96-.937-2.963 6.595.287 13.328.435 20.141.435s13.546-.148 20.141-.435c-.306 1.003-.618 1.991-.937 2.963-6.8 20.725-14.595 28.078-19.204 28.078zm0-45.606c-8.18 0-16.222-.216-24.018-.632-2.797-13.221-4.62-28.128-5.353-43.878 8.854.467 17.955.708 27.188.708 10.762 0 21.344-.328 31.565-.959-.725 15.842-2.552 30.837-5.364 44.128-7.796.417-15.838.633-24.018.633zm-105.908-56.241c16.444 5.013 37.756 8.694 61.484 10.701.642 15.212 2.269 30.144 4.861 43.783-22.162-2.043-41.468-5.792-55.036-10.855-6.695-13.203-10.705-27.986-11.309-43.629zm15.682-59.704c12.701 4.349 29.553 7.64 48.582 9.599-2.044 14.581-3.082 30.184-3.092 45.743-23.998-2.101-45.151-5.967-60.64-11.213 1.729-16.045 7.054-31.03 15.15-44.129zm90.226-50.426c4.609 0 12.404 7.354 19.204 28.078 1.846 5.628 3.467 11.77 4.849 18.325-7.782.451-15.842.684-24.053.684s-16.271-.234-24.053-.684c1.381-6.555 3.002-12.698 4.849-18.325 6.8-20.724 14.595-28.078 19.204-28.078zm0 62.088c9.097 0 18.041-.283 26.673-.827 2.008 13.872 3.063 29.036 3.063 44.728v.583c-10.287.656-20.994.998-31.918.998-9.388 0-18.615-.253-27.553-.74-.001-.28-.001-.56-.001-.841 0-15.692 1.055-30.856 3.063-44.728 8.632.544 17.576.827 26.673.827zm105.202 30.961c-14.871 5.678-36.062 9.924-60.467 12.314-.027-15.425-1.066-30.884-3.092-45.338 19.03-1.959 35.881-5.251 48.582-9.599 7.843 12.688 13.085 27.146 14.977 42.623zm-24.245-55.395c-11.314 3.387-25.695 5.971-41.81 7.571-3.367-16.881-8.239-31.658-14.573-42.349 22.363 5.329 42 17.764 56.383 34.778zm-105.531-34.778c-6.334 10.691-11.206 25.468-14.573 42.349-16.116-1.6-30.496-4.184-41.81-7.571 14.383-17.014 34.02-29.449 56.383-34.778zm-57.393 170.235c13.214 3.135 28.88 5.467 45.882 6.84 3.048 11.378 6.89 21.352 11.511 29.151-22.891-5.455-42.925-18.356-57.393-35.991zm106.541 35.991c4.62-7.799 8.463-17.773 11.511-29.151 17.002-1.372 32.668-3.704 45.882-6.84-14.467 17.635-34.502 30.536-57.393 35.991z" fill="#5381c1" data-original="#5381c1" class=""></path><path d="m86.258 137.544c4.774-21.2 15.196-40.051 29.921-55.95 6.488 20.676 7.825 42.174 3.051 63.375-4.774 21.2-15.196 40.051-29.921 55.95-6.489-20.676-7.825-42.174-3.051-63.375z" fill="#88b56c" data-original="#88b56c" class=""></path><path d="m118.066 88.191c4.816 18.63 5.432 37.823 1.164 56.778s-13.052 36.031-25.388 50.799c.247-18.071 2.376-36.517 6.548-55.042s10.153-36.102 17.676-52.535zm307.676 49.353c-4.774-21.2-15.196-40.051-29.921-55.95-6.488 20.676-7.825 42.174-3.051 63.375s15.196 40.051 29.921 55.95c6.489-20.676 7.825-42.174 3.051-63.375z" fill="#9ac083" data-original="#9ac083" class=""></path><path d="m411.612 140.726c4.172 18.525 6.3 36.971 6.548 55.042-12.337-14.768-21.12-31.844-25.388-50.799s-3.652-38.148 1.164-56.778c7.521 16.433 13.504 34.01 17.676 52.535z" fill="#88b56c" data-original="#88b56c" class=""></path><path d="m93.32 155.632c3.518-15.621 8.965-30.014 15.787-42.636.754 14.328-.494 29.666-4.012 45.288s-8.965 30.014-15.787 42.636c-.753-14.329.495-29.667 4.012-45.288zm325.36 0c-3.518-15.621-8.965-30.014-15.787-42.636-.754 14.328.494 29.666 4.012 45.288s8.965 30.014 15.787 42.636c.753-14.329-.495-29.667-4.012-45.288z" fill="#6e9e50" data-original="#6e9e50" class=""></path><path d="m54.275 186.016c-5.818-20.938-5.549-42.476-.093-63.448 15.494 15.15 26.837 33.461 32.656 54.399 5.818 20.938 5.549 42.476.093 63.448-15.495-15.151-26.838-33.462-32.656-54.399z" fill="#88b56c" data-original="#88b56c" class=""></path><path d="m81.757 277.228c-15.494-15.237-26.014-34.033-31.757-54.929 20.989 5.391 39.959 15.594 55.454 30.83 15.495 15.237 26.014 34.033 31.758 54.928-20.989-5.39-39.96-15.593-55.455-30.829z" fill="#88b56c" data-original="#88b56c" class=""></path><path d="m58.964 127.488c13.053 14.139 22.672 30.759 27.874 49.479s5.537 37.92 1.651 56.766c-8.327-16.04-15.174-33.3-20.258-51.595-5.085-18.296-8.125-36.614-9.267-54.65zm366.106 112.927c-5.456-20.972-5.726-42.51.093-63.448s17.162-39.249 32.656-54.399c5.456 20.972 5.726 42.51-.093 63.448s-17.162 39.248-32.656 54.399z" fill="#9ac083" data-original="#9ac083" class=""></path><path d="m443.77 182.137c-5.084 18.296-11.931 35.555-20.258 51.595-3.887-18.846-3.552-38.046 1.651-56.766 5.202-18.72 14.821-35.34 27.874-49.479-1.143 18.037-4.183 36.355-9.267 54.65z" fill="#88b56c" data-original="#88b56c" class=""></path><path d="m69.05 198.613c-4.287-15.428-6.293-30.685-6.25-45.033 7.439 12.269 13.593 26.374 17.88 41.801s6.293 30.685 6.25 45.033c-7.439-12.268-13.593-26.373-17.88-41.801zm373.9 0c4.287-15.428 6.293-30.685 6.25-45.033-7.439 12.269-13.593 26.374-17.88 41.801s-6.293 30.685-6.25 45.033c7.439-12.268 13.593-26.373 17.88-41.801z" fill="#6e9e50" data-original="#6e9e50" class=""></path><path d="m56.6 224.175c18.369 5.734 35 15.332 48.854 28.955s23.73 30.091 29.771 48.361c-15.223-9.74-29.773-21.277-43.312-34.591s-25.319-27.667-35.313-42.725zm318.189 83.883c5.743-20.895 16.263-39.692 31.758-54.928 15.495-15.237 34.465-25.439 55.454-30.83-5.743 20.895-16.263 39.691-31.757 54.928-15.496 15.236-34.467 25.439-55.455 30.83z" fill="#9ac083" data-original="#9ac083" class=""></path><path d="m420.087 266.9c-13.54 13.314-28.089 24.85-43.312 34.591 6.042-18.27 15.918-34.738 29.771-48.361 13.854-13.623 30.486-23.221 48.854-28.955-9.994 15.058-21.774 29.411-35.313 42.725z" fill="#88b56c" data-original="#88b56c" class=""></path><path d="m100.849 280.766c-11.417-11.227-20.773-23.445-27.899-35.898 12.571 6.916 24.945 16.065 36.362 27.292s20.773 23.445 27.899 35.899c-12.571-6.917-24.944-16.066-36.362-27.293zm310.302 0c11.417-11.227 20.773-23.445 27.899-35.898-12.571 6.916-24.945 16.065-36.362 27.292s-20.773 23.445-27.899 35.899c12.571-6.917 24.944-16.066 36.362-27.293z" fill="#6e9e50" data-original="#6e9e50" class=""></path></g></g></svg>